<?xml version="1.0" encoding="UTF-8"?>
<svg version="1.1" xmlns="http://www.w3.org/2000/svg" width="2000" height="855">
    <path
        d="M0 0 C7.09699432 1.85529907 14.04658322 3.94333781 20.96484375 6.37890625 C21.89470596 6.70277817 22.82456818 7.02665009 23.78260803 7.3603363 C26.83541319 8.42439117 29.88642414 9.49349781 32.9375 10.5625 C35.1124837 11.32138358 37.28761707 12.07983831 39.46289062 12.83789062 C42.86208255 14.02257144 46.26115932 15.20757401 49.65975952 16.39395142 C60.68546353 20.24276359 71.72097368 24.0629934 82.75805664 27.87902832 C88.2153534 29.76600611 93.672175 31.65435634 99.12890625 33.54296875 C100.20612946 33.91579987 101.28335266 34.28863098 102.39321899 34.67276001 C109.60599858 37.16972918 116.81719778 39.67121827 124.02734375 42.17578125 C127.99738338 43.55472335 131.96742835 44.93365009 135.9375 46.3125 C136.92048065 46.65391022 137.9034613 46.99532043 138.91622925 47.34707642 C151.34684153 51.66340009 163.78326144 55.96259336 176.2265625 60.2421875 C176.8752895 60.46530483 177.52401649 60.68842216 178.19240189 60.91830063 C183.47944497 62.73657127 188.7666402 64.55439943 194.05387115 66.37212372 C210.74910283 72.11210038 227.43325332 77.88112094 244.0880127 83.7376709 C260.63460851 89.55300138 277.22367977 95.2440963 293.8125 100.9375 C318.06707674 109.26251398 342.30225371 117.63993947 366.50158691 126.12445068 C369.11892077 127.04167485 371.73665564 127.95774675 374.35449219 128.87353516 C378.75966026 130.41459541 383.16431493 131.95711286 387.56851196 133.50094604 C389.21387114 134.07758582 390.85935597 134.65386723 392.50497437 135.22976685 C394.74466803 136.01383506 396.98374991 136.79962441 399.22265625 137.5859375 C399.88490204 137.81742996 400.54714783 138.04892242 401.22946167 138.28742981 C403.54593048 139.10255092 405.80106247 139.90053123 408 141 C408.63323571 143.37810051 409.14101335 145.69526571 409.59375 148.109375 C409.89876289 149.64503524 410.20428855 151.1805937 410.51025391 152.71606445 C410.67052063 153.53450836 410.83078735 154.35295227 410.99591064 155.19619751 C419.49585084 198.25834155 431.60967048 241.21589542 450.53662109 280.92773438 C452.03399468 284.07136955 453.49716257 287.22942008 454.95703125 290.390625 C468.44334904 319.33638195 485.18409941 346.53964041 503 373 C503.7276506 374.08093933 503.7276506 374.08093933 504.47000122 375.18371582 C504.97175873 375.92907593 505.47351624 376.67443604 505.99047852 377.44238281 C556.68629799 452.75519199 587.60994409 526.46743384 593 618 C593.03930634 618.65147003 593.07861267 619.30294006 593.11911011 619.97415161 C594.01961292 635.20368929 594.31675227 650.43539586 594.5625 665.6875 C594.58367889 666.9339328 594.60485779 668.1803656 594.62667847 669.46456909 C594.95739371 688.97770778 595.14575619 708.48436713 595 728 C592.34623097 725.5092943 590.42735644 723.33654169 588.87890625 720.04296875 C588.3223938 718.88716309 588.3223938 718.88716309 587.75463867 717.70800781 C587.36123291 716.87624023 586.96782715 716.04447266 586.5625 715.1875 C582.36587965 706.55544652 577.80672657 698.19744869 573.03833008 689.86987305 C568.99898533 682.80323787 565.09831532 675.67224481 561.25 668.5 C556.8351065 660.30359512 552.29535819 652.23780482 547.41308594 644.31054688 C545.65782696 641.44051043 543.92706079 638.55615776 542.1953125 635.671875 C533.67529105 621.50088351 524.94549348 607.50363637 515.80419922 593.72167969 C513.99914818 590.99871501 512.20408765 588.26936246 510.41015625 585.5390625 C503.87943643 575.63295483 497.14884643 565.91153821 490.1484375 556.33203125 C487.54950304 552.77269054 485.00835572 549.17673178 482.48510742 545.56347656 C476.43700455 536.90543287 470.1131643 528.49391928 463.64990234 520.14257812 C461.97979177 517.97375741 460.3256165 515.79365027 458.67578125 513.609375 C452.81146288 505.85571195 446.8157907 498.28394132 440.48046875 490.91015625 C438.2654468 488.31142971 436.11867321 485.67734972 434 483 C426.98169982 474.15895111 419.6289471 465.60814319 412.0390625 457.25390625 C410.20913753 455.2311731 408.41118272 453.18630565 406.625 451.125 C404.50127967 448.67493967 402.33441193 446.2751529 400.12109375 443.90625 C399.61690918 443.36468262 399.11272461 442.82311523 398.59326172 442.26513672 C397.58482656 441.1846475 396.57221803 440.10803602 395.55517578 439.03564453 C392 435.22163901 392 435.22163901 392 433 C391.40610977 432.74367294 390.81221954 432.48734589 390.20033264 432.22325134 C387.78712418 430.88165397 386.53896206 429.55399611 384.79467773 427.42797852 C380.8465484 422.76777644 376.60794469 418.46376782 372.28515625 414.15234375 C371.47058456 413.33681534 370.65601288 412.52128693 369.8167572 411.68104553 C368.10440807 409.96801992 366.39081158 408.25624035 364.67602539 406.5456543 C362.06997985 403.94496448 359.46931478 401.33898044 356.86914062 398.73242188 C355.19563301 397.05957514 353.52181518 395.38703866 351.84765625 393.71484375 C351.0797023 392.94486557 350.31174835 392.17488739 349.52052307 391.38157654 C345.38109026 387.25983397 341.15453107 383.3066244 336.72917175 379.49336243 C334.71941023 377.75767461 332.7766306 375.96175502 330.8515625 374.1328125 C330.16143066 373.47933838 329.47129883 372.82586426 328.76025391 372.15258789 C328.05562012 371.48348389 327.35098633 370.81437988 326.625 370.125 C317.87797113 361.86349654 309.07801039 353.8215365 299.71875 346.25 C297.07852271 344.06498431 294.5327028 341.80828609 292 339.5 C287.75348314 335.63466655 283.3698689 331.98601754 278.90625 328.375 C275.79607459 325.83335128 272.74094752 323.23410083 269.6875 320.625 C264.63872973 316.32110562 259.47211624 312.19717598 254.23339844 308.12768555 C250.21544507 304.99276824 246.3061302 301.75438623 242.4375 298.4375 C237.74018456 294.41578698 232.93881891 290.58015796 228.01538086 286.83959961 C223.78972216 283.62501522 219.63614842 280.32879847 215.5 277 C210.89571903 273.29639079 206.26102077 269.64592066 201.5625 266.0625 C195.95123852 261.78275368 190.47367322 257.35050932 185.00976562 252.88476562 C180.73219997 249.39312591 176.4180425 245.95620136 172.0625 242.5625 C156.33424832 230.27755159 141.0181685 217.42640281 126.234375 204.01953125 C124.13095134 202.11835986 122.00976512 200.24085091 119.875 198.375 C119.24335938 197.82199219 118.61171875 197.26898438 117.9609375 196.69921875 C116.55802957 195.48355152 115.14542229 194.27904183 113.7265625 193.08203125 C112.99179687 192.45683594 112.25703125 191.83164063 111.5 191.1875 C110.8296875 190.62417969 110.159375 190.06085938 109.46875 189.48046875 C108 188 108 188 108 186 C107.45988281 185.78601563 106.91976562 185.57203125 106.36328125 185.3515625 C103.14956719 183.51363677 100.75082564 181.00330681 98.1875 178.375 C97.6519751 177.83230469 97.1164502 177.28960937 96.56469727 176.73046875 C93.1928429 173.28965509 89.94446976 169.77333488 86.82421875 166.1015625 C84.98391572 163.98147036 83.07795504 161.93182327 81.15844727 159.88354492 C74.65648201 152.91948818 68.7540113 145.58865331 63 138 C62.55156738 137.41379883 62.10313477 136.82759766 61.64111328 136.22363281 C34.86713066 101.10989687 0 45.43525682 0 0 Z "
        fill="#96A15A" transform="translate(385,38)" />
    <path
        d="M0 0 C-5.80383721 35.20338268 -18.71852293 68.42472771 -35 100 C-35.41991211 100.81629883 -35.83982422 101.63259766 -36.27246094 102.47363281 C-50.92404224 130.56959661 -71.02682691 155.38111815 -92.55175781 178.43847656 C-93.9599722 179.95684123 -95.35371331 181.48701934 -96.7421875 183.0234375 C-105.28850898 192.47384543 -114.05491168 201.80565748 -123.77734375 210.0625 C-126.91997776 212.80194898 -129.95350437 215.65450369 -133 218.5 C-137.9260611 223.09108637 -142.88341543 227.62094113 -148 232 C-149.04569001 232.8996035 -150.09125069 233.79935733 -151.13671875 234.69921875 C-158.52056526 241.0474438 -165.94176271 247.35074278 -173.38232422 253.63232422 C-175.02908979 255.02459417 -176.67310067 256.42005473 -178.31640625 257.81640625 C-184.22558679 262.83455441 -190.17470635 267.79336564 -196.1875 272.6875 C-199.31799666 275.26146392 -202.41172461 277.87569086 -205.5 280.5 C-209.46907935 283.87278574 -213.46016863 287.21176517 -217.5 290.5 C-224.94769697 296.56809463 -232.26753861 302.78667505 -239.55078125 309.05078125 C-240.14084961 309.55826904 -240.73091797 310.06575684 -241.33886719 310.58862305 C-242.52855219 311.61195379 -243.7180058 312.63555362 -244.90722656 313.65942383 C-248.41203233 316.6677968 -251.96250324 319.6053727 -255.5625 322.5 C-260.92366488 326.84902756 -265.95570739 331.50799484 -271 336.21484375 C-273.95876022 338.97346339 -276.98395085 341.64611326 -280.04296875 344.29296875 C-283.25443417 347.09418709 -286.40540822 349.96242387 -289.56640625 352.8203125 C-291.66700615 354.70174868 -293.79412051 356.54282694 -295.9375 358.375 C-300.2084008 362.08507544 -304.1442025 366.11153268 -308.09375 370.15625 C-310.21596378 372.28403519 -312.43032008 374.25816038 -314.71069336 376.21508789 C-318.81415984 379.79185314 -322.69324331 383.54821661 -326.53515625 387.40234375 C-327.21750839 388.08373917 -327.89986053 388.76513458 -328.60289001 389.46717834 C-330.03344437 390.89705741 -331.46275767 392.32817911 -332.89086914 393.76049805 C-335.05699074 395.93197711 -337.22840174 398.09806325 -339.40039062 400.26367188 C-340.79979987 401.66374202 -342.19889884 403.06412238 -343.59765625 404.46484375 C-344.23639175 405.10155502 -344.87512726 405.7382663 -345.53321838 406.39427185 C-349.34605675 410.22667461 -352.97058731 414.17337029 -356.4940033 418.27381897 C-358.39749662 420.45561263 -360.42238471 422.48440307 -362.5 424.5 C-367.4516571 429.39260838 -372.06195906 434.48578473 -376.3125 440 C-376.869375 440.66 -377.42625 441.32 -378 442 C-378.66 442 -379.32 442 -380 442 C-380.24621094 442.56589844 -380.49242187 443.13179688 -380.74609375 443.71484375 C-382.21536224 446.39248258 -383.97752435 448.33043612 -386.0625 450.5625 C-390.08824799 454.95422508 -393.88820188 459.47329471 -397.6328125 464.10546875 C-399.68395562 466.61354969 -401.774398 469.08101775 -403.88696289 471.53735352 C-409.18761284 477.71147614 -414.18400375 484.07395473 -419.09277344 490.56323242 C-422.64808476 495.25727237 -426.28801535 499.86678178 -430 504.4375 C-436.1084489 511.9955989 -441.76226754 519.85423523 -447.3984375 527.76757812 C-448.89453249 529.85298858 -450.41042229 531.92158858 -451.9375 533.984375 C-474.10547172 564.03453561 -493.99679751 595.88574807 -513 628 C-513.58249512 628.98194336 -514.16499023 629.96388672 -514.76513672 630.97558594 C-536.55327339 667.7664988 -556.00638534 705.71121108 -575 744 C-575.33 744 -575.66 744 -576 744 C-576.82457257 729.97334754 -577.17600412 715.99488792 -577.203125 701.9453125 C-577.20595238 700.92989254 -577.20877975 699.91447258 -577.21169281 698.86828232 C-577.22655214 693.48168444 -577.23586186 688.09511237 -577.24023438 682.70849609 C-577.24459123 678.35163878 -577.25839391 673.9949826 -577.28125 669.63818359 C-577.74245886 579.86183875 -562.84088523 497.29226965 -515 420 C-514.36416992 418.97036133 -513.72833984 417.94072266 -513.07324219 416.87988281 C-508.75160928 409.89706904 -504.38081355 402.9457816 -500 396 C-490.36523797 380.69906234 -480.83127285 365.34591833 -471.63818359 349.77441406 C-470.6352061 348.07577976 -469.62858955 346.37927947 -468.61572266 344.68652344 C-436.45026119 290.73883719 -419.02138945 228.18196045 -407.39460754 167.00135803 C-407.08932616 165.41193142 -406.77232553 163.8246973 -406.44195557 162.24029541 C-406.14974874 160.75908406 -405.9078914 159.26696155 -405.71966553 157.76898193 C-405.38232422 155.65185547 -405.38232422 155.65185547 -404 152 C-401.20261808 150.13786281 -399.10203026 149.12769378 -396 148 C-394.5393663 147.42726349 -394.5393663 147.42726349 -393.04922485 146.84295654 C-389.4910369 145.46741931 -385.91392967 144.14795198 -382.33203125 142.8359375 C-380.96307481 142.33048379 -379.59428968 141.8245659 -378.22566223 141.31822205 C-375.29229847 140.23378609 -372.35799522 139.1519491 -369.4229126 138.07217407 C-362.33634213 135.46469934 -355.25517037 132.84262348 -348.17384338 130.22094917 C-346.53812703 129.61540321 -344.90235384 129.01001073 -343.26652527 128.40476799 C-326.0947983 122.05083464 -308.95602478 115.61084271 -291.82665634 109.1437149 C-289.61550963 108.308917 -287.40427974 107.47433977 -285.19302368 106.63983154 C-279.5227241 104.4998861 -273.85246191 102.35984183 -268.18247986 100.21905518 C-257.79412637 96.29716234 -247.39934782 92.39264122 -237 88.5 C-225.25506478 84.10272003 -213.51609945 79.6897484 -201.78125 75.265625 C-201.09509298 75.00694012 -200.40893597 74.74825523 -199.70198631 74.48173141 C-196.11350377 73.12881856 -192.52505531 71.77581536 -188.93661499 70.42279053 C-163.19550971 60.71720132 -137.44699545 51.03167963 -111.6875 41.375 C-110.19285017 40.81464794 -108.69820092 40.25429435 -107.20355225 39.69393921 C-92.95781713 34.35326493 -78.71120164 29.01494289 -64.4634676 23.67960358 C-58.479329 21.43869685 -52.49544983 19.19709826 -46.51173687 16.95505524 C-42.32816649 15.38758622 -38.14422138 13.82112327 -33.95996571 12.25548458 C-32.00978061 11.52558201 -30.05978777 10.7951686 -28.10987854 10.06452942 C-25.75785063 9.18321797 -23.40553009 8.30268686 -21.05284119 7.42314148 C-15.31256482 5.27063753 -9.6079731 3.05993527 -3.94528198 0.71006775 C-2 0 -2 0 0 0 Z "
        fill="#96A15A" transform="translate(1606,27)" />
    <path
        d="M0 0 C1.59575827 0.50190069 3.1917524 1.00305203 4.78796387 1.50350952 C9.08329777 2.85239508 13.37539991 4.2113052 17.66701508 5.57196808 C22.19417637 7.00523228 26.7244065 8.42872792 31.25439453 9.85302734 C38.64496572 12.177835 46.03400376 14.50744751 53.421875 16.84082031 C66.88265506 21.09174432 80.35212874 25.3148171 93.82272339 29.53451538 C97.20374624 30.59372294 100.58444262 31.65396836 103.96503735 32.71454144 C126.00488513 39.62873751 148.06183527 46.48725104 170.12282944 53.33363342 C194.54824841 60.91391794 218.95468445 68.5525836 243.34824753 76.23472977 C272.19239401 85.31815199 301.07226665 94.28156058 329.9765625 103.171875 C329.9765625 106.171875 329.9765625 106.171875 328.46484375 107.78515625 C280.13188007 145.53172573 190.94786247 142.22322808 132.50390625 149.03125 C35.98466023 160.26130464 35.98466023 160.26130464 -60.0234375 175.171875 C-61.07714539 175.35558655 -62.13085327 175.5392981 -63.2164917 175.72857666 C-157.71956437 192.23611841 -251.46319154 215.44899875 -341.0234375 250.171875 C-341.67554199 250.42432983 -342.32764648 250.67678467 -342.99951172 250.93688965 C-362.55434741 258.51860394 -381.85807047 266.6589859 -401.0234375 275.171875 C-402.57369629 275.85805908 -402.57369629 275.85805908 -404.15527344 276.55810547 C-438.00243696 291.62158796 -472.16919506 307.97004829 -503.63989258 327.58520508 C-507.82022812 330.171875 -507.82022812 330.171875 -510.0234375 330.171875 C-508.31257637 324.24354225 -505.5395442 318.90959339 -502.7734375 313.421875 C-502.30808594 312.4834375 -501.84273437 311.545 -501.36328125 310.578125 C-492.48669096 292.87385125 -492.48669096 292.87385125 -485.0859375 286.046875 C-481.82741902 282.96530918 -478.71106357 279.86200514 -475.79248047 276.4519043 C-472.22290773 272.3491974 -468.47144912 268.47487188 -464.62109375 264.63671875 C-463.93969833 263.95436661 -463.25830292 263.27201447 -462.55625916 262.56898499 C-461.12638009 261.13843063 -459.69525839 259.70911733 -458.26293945 258.28100586 C-456.09146039 256.11488426 -453.92537425 253.94347326 -451.75976562 251.77148438 C-450.35969548 250.37207513 -448.95931512 248.97297616 -447.55859375 247.57421875 C-446.92188248 246.93548325 -446.2851712 246.29674774 -445.62916565 245.63865662 C-441.82941016 241.85829886 -437.91953247 238.2594728 -433.85643005 234.76332092 C-430.8397578 232.1441773 -427.93736717 229.40409611 -425.0234375 226.671875 C-420.09820995 222.07980168 -415.13869933 217.55244932 -410.0234375 213.171875 C-408.95426257 212.24888845 -407.88526954 211.32569118 -406.81640625 210.40234375 C-399.63984126 204.21401409 -392.38345091 198.14155562 -385.0234375 192.171875 C-383.79768697 191.16465866 -382.57246058 190.15680424 -381.34765625 189.1484375 C-373.3161547 182.55350499 -365.15518543 176.18688237 -356.80859375 169.99609375 C-353.42106954 167.48117809 -350.09545826 164.89763966 -346.7734375 162.296875 C-316.37868027 138.75124025 -283.18086797 118.51978223 -250.0234375 99.171875 C-249.21068359 98.69459961 -248.39792969 98.21732422 -247.56054688 97.72558594 C-210.95967341 76.26321556 -172.84838622 57.36322596 -134.11010742 40.10290527 C-132.04413961 39.18111187 -129.97982647 38.25571302 -127.91601562 37.32910156 C-106.93682236 27.91432215 -85.77933385 18.96568149 -64.49908447 10.25384521 C-59.61978471 8.2524413 -54.75646774 6.21797848 -49.90689087 4.14559937 C-46.97084333 2.89273444 -44.02858678 1.65491575 -41.08526611 0.41925049 C-39.73096147 -0.15376619 -38.37955305 -0.73368635 -37.03143311 -1.32110596 C-35.18253773 -2.12578679 -33.32191074 -2.90334739 -31.4609375 -3.6796875 C-29.91212891 -4.34218506 -29.91212891 -4.34218506 -28.33203125 -5.01806641 C-18.84759024 -7.34018678 -8.99647127 -2.86761288 0 0 Z "
        fill="#82BBD3" transform="translate(1580.0234375,432.828125)" />
    <path
        d="M0 0 C1.03663284 0.39420387 1.03663284 0.39420387 2.09420776 0.79637146 C4.3846385 1.66955922 6.67083621 2.55328743 8.95703125 3.4375 C10.59216867 4.06439981 12.22750884 4.690771 13.86303711 5.31665039 C17.35211712 6.6535159 20.83926411 7.99527813 24.32519531 9.34033203 C28.87138236 11.09363932 33.42245494 12.83383821 37.97520447 14.57002258 C82.75114122 31.65103234 126.91202416 50.03013749 169.97802734 71.08447266 C173.20328556 72.64773844 176.44839287 74.16357869 179.70141602 75.66796875 C207.21647308 88.40070676 233.88116042 103.69533564 259.76953125 119.4375 C260.67316406 119.98631836 261.57679688 120.53513672 262.5078125 121.10058594 C287.20101068 136.16689042 311.63474427 152.05763515 334.76953125 169.4375 C335.59807617 170.05786133 336.42662109 170.67822266 337.28027344 171.31738281 C348.4201126 179.67735724 359.36531463 188.24118207 370.12109375 197.08886719 C372.38072283 198.93753292 374.6680416 200.75038319 376.95703125 202.5625 C385.71688101 209.55565737 394.21089254 216.85525808 402.5078125 224.390625 C404.57627 226.2625969 406.66514039 228.1061339 408.76953125 229.9375 C413.48407024 234.05217717 418.1421704 238.22500598 422.76953125 242.4375 C423.25115723 242.87255859 423.7327832 243.30761719 424.22900391 243.75585938 C427.93485675 247.1125501 431.57320971 250.53483808 435.18945312 253.98779297 C437.10872356 255.81008286 439.03673807 257.62007465 440.97460938 259.42236328 C456.10379705 273.53138911 468.95070324 286.48722208 477.50683594 305.6484375 C479.77265569 310.65321802 482.28992501 315.53602739 484.76953125 320.4375 C480.4088258 318.80335203 476.31329249 316.72970949 472.1875 314.5859375 C471.45565994 314.20821198 470.72381989 313.83048645 469.96980286 313.4413147 C467.63109385 312.23385968 465.29396611 311.02338465 462.95703125 309.8125 C451.60195546 303.93681742 440.22373858 298.11784378 428.76953125 292.4375 C427.83181885 291.97118164 426.89410645 291.50486328 425.92797852 291.02441406 C383.99805122 270.28880862 340.04725915 253.40767941 295.76953125 238.4375 C295.02868286 238.18611267 294.28783447 237.93472534 293.52453613 237.67572021 C199.85984599 205.91850532 102.49158295 186.2411565 -169.74751282 154.85658264 C-176.53578533 154.24463456 -183.32370036 153.62875468 -190.1115675 153.01232815 C-194.7043349 152.59575496 -199.29732346 152.18209854 -203.89102173 151.77590942 C-222.89758016 150.09511173 -241.85863626 148.22608661 -260.79296875 145.85546875 C-262.02569991 145.70166213 -262.02569991 145.70166213 -263.28333473 145.54474831 C-335.73640473 136.44554556 -335.73640473 136.44554556 -358.23046875 120.4375 C-359.34615234 119.67179688 -359.34615234 119.67179688 -360.484375 118.890625 C-361.06058594 118.41109375 -361.63679688 117.9315625 -362.23046875 117.4375 C-362.23046875 116.7775 -362.23046875 116.1175 -362.23046875 115.4375 C-361.69955124 115.25783188 -361.16863373 115.07816376 -360.62162781 114.89305115 C-337.66779551 107.12343117 -314.71921839 99.34391169 -291.85546875 91.3125 C-272.28274278 84.43895843 -252.63086987 77.80462629 -232.97405243 71.17667389 C-215.44554777 65.26605683 -197.92750677 59.33553816 -180.48046875 53.1875 C-158.91606462 45.58958687 -137.23630896 38.33371533 -115.56727219 31.04122925 C-92.35045857 23.22756047 -69.15085296 15.37977622 -46.05270386 7.22021484 C-43.21664186 6.22122026 -40.37685896 5.23307555 -37.53668213 4.24584961 C-35.87201999 3.66236978 -34.20983642 3.07180188 -32.54925537 2.47680664 C-29.72253998 1.46512085 -26.8893433 0.47356323 -24.0546875 -0.515625 C-23.18028519 -0.83384216 -22.30588287 -1.15205933 -21.40498352 -1.47991943 C-13.42768992 -4.22621586 -7.77907531 -3.03414239 0 0 Z "
        fill="#82BBD3" transform="translate(455.23046875,439.5625)" />
    <path
        d="M0 0 C0.97702881 0.60448975 1.95405762 1.20897949 2.96069336 1.83178711 C3.98042236 2.49315674 5.00015137 3.15452637 6.05078125 3.8359375 C7.1394751 4.51599854 8.22816895 5.19605957 9.34985352 5.89672852 C11.60369199 7.30482695 13.85231447 8.7213079 16.09570312 10.14599609 C20.03485514 12.63533767 24.01488778 15.05141615 28.00390625 17.4597168 C38.14782139 23.58449517 48.22619493 29.81705337 58.31347656 36.03442383 C66.37449948 40.99831061 74.45641904 45.9266994 82.55078125 50.8359375 C83.13876495 51.1925647 83.72674866 51.54919189 84.33255005 51.91662598 C87.24118646 53.68059967 90.15008815 55.44413543 93.05908203 57.20751953 C106.08247514 65.1039259 119.08570102 73.03161112 132.05078125 81.0234375 C141.0941346 86.59698051 150.15579532 92.13899752 159.23828125 97.6484375 C159.81820831 98.00023071 160.39813538 98.35202393 160.99563599 98.71447754 C165.1174909 101.21444217 169.24028012 103.71286381 173.36328125 106.2109375 C178.07225688 109.06404565 182.78081654 111.91783696 187.48828125 114.7734375 C188.35909332 115.30165604 188.35909332 115.30165604 189.24749756 115.84054565 C198.71202573 121.58344725 208.14514648 127.37641316 217.56811523 133.18725586 C228.44454334 139.88887673 239.36703669 146.51370162 250.29197693 153.13578796 C257.08234919 157.25206297 263.87184277 161.36994681 270.64550781 165.51367188 C274.63428385 167.95308863 278.62608555 170.37767267 282.67578125 172.71484375 C283.3004126 173.08085693 283.92504395 173.44687012 284.56860352 173.82397461 C286.14903949 174.7472878 287.73815455 175.65570395 289.328125 176.5625 C289.99972656 177.10648438 290.67132812 177.65046875 291.36328125 178.2109375 C291.36328125 179.5309375 291.36328125 180.8509375 291.36328125 182.2109375 C282.62028195 181.63928437 274.0028343 180.69868005 265.3359375 179.42578125 C262.78051358 179.0597621 260.22500836 178.69431016 257.66943359 178.3293457 C256.31630277 178.13507287 254.96317373 177.9407876 253.61004639 177.74649048 C174.65483979 166.43721243 95.24316484 158.62603476 -647.06616211 199.80786133 C-648.01758087 200.03587936 -648.96899963 200.2638974 -649.94924927 200.49882507 C-651.72334554 200.92476675 -653.49650778 201.3546255 -655.26852417 201.78913879 C-656.05300934 201.97747787 -656.83749451 202.16581696 -657.64575195 202.35986328 C-658.32402542 202.52511505 -659.00229889 202.69036682 -659.7011261 202.86062622 C-661.63671875 203.2109375 -661.63671875 203.2109375 -665.63671875 203.2109375 C-664.76533894 199.48411307 -663.35647459 197.75971592 -660.26953125 195.6953125 C-658.77569677 194.76955112 -657.27221163 193.85926196 -655.76171875 192.9609375 C-654.93236816 192.45353027 -654.10301758 191.94612305 -653.24853516 191.42333984 C-651.39780972 190.29355411 -649.54324603 189.17003966 -647.68554688 188.05175781 C-644.454017 186.10062591 -641.23997411 184.12270818 -638.02734375 182.140625 C-614.61632415 167.72806895 -590.65323845 154.46857084 -566.15332031 142.00292969 C-562.85885181 140.32413221 -559.57169474 138.63175127 -556.28515625 136.9375 C-526.23344354 121.55675805 -495.05602824 108.5115548 -463.63671875 96.2109375 C-462.84992737 95.90263 -462.06313599 95.59432251 -461.25250244 95.27667236 C-363.27177307 56.96396701 -260.33102154 32.92501755 -82.51171875 5.4609375 C-81.80826324 5.36756859 -81.10480774 5.27419968 -80.3800354 5.1780014 C-70.13676891 3.81980317 -59.88953014 2.49513745 -49.63671875 1.2109375 C-48.89073929 1.11745026 -48.14475983 1.02396301 -47.37617493 0.92764282 C-42.73380983 0.34742741 -38.09040651 -0.22340253 -33.44559097 -0.78366852 C-31.97651008 -0.96152788 -30.50765565 -1.14127003 -29.03905869 -1.32308197 C-6.46618391 -4.10943084 -6.46618391 -4.10943084 0 0 Z "
        fill="#B4C200" transform="translate(1708.63671875,616.7890625)" />
    <path
        d="M0 0 C1.64452105 0.15753328 3.28906826 0.31479358 4.93363953 0.47180176 C9.34068839 0.89474661 13.74688125 1.32600458 18.15280533 1.76049805 C20.91324809 2.0327105 23.67382737 2.30350755 26.43441772 2.57421875 C119.84035024 11.75640675 213.23571958 24.32520447 311.03027344 48.96020508 C313.30316576 49.53881796 315.57723127 50.11261821 317.8515625 50.68554688 C396.65583427 70.5825445 473.16989446 97.9864858 546.2734375 133.53125 C546.87973999 133.82580078 547.48604248 134.12035156 548.11071777 134.42382812 C572.75938543 146.41534374 596.64838553 159.64082974 620.2734375 173.53125 C621.1607959 174.05090332 622.0481543 174.57055664 622.96240234 175.10595703 C625.26330288 176.46148067 627.55201676 177.83486008 629.8359375 179.21875 C630.49062012 179.60434082 631.14530273 179.98993164 631.81982422 180.38720703 C636.066193 183.00999867 636.066193 183.00999867 637.17578125 185.80078125 C637.20800781 186.37183594 637.24023438 186.94289063 637.2734375 187.53125 C630.16038654 186.78113059 623.24033336 185.36471839 616.2421875 183.90625 C613.59773844 183.36271053 610.95314853 182.81990593 608.30834961 182.27807617 C607.61907348 182.13662517 606.92979734 181.99517416 606.21963406 181.84943676 C511.25880736 162.37902518 415.02272638 151.52327911 309.9609375 146.34375 C309.1645285 146.30682037 308.36811951 146.26989075 307.5475769 146.23184204 C301.45755864 145.95566503 295.36627969 145.73485312 289.2734375 145.53125 C288.02849518 145.48888214 286.78355286 145.44651428 285.50088501 145.40286255 C259.19609268 144.52356862 232.90393742 144.3301113 206.5859375 144.34375 C205.0424935 144.34392939 205.0424935 144.34392939 203.4678688 144.3441124 C166.03190916 144.34959104 128.67670083 144.92434733 91.2734375 146.53125 C90.06467957 146.58216797 88.85592163 146.63308594 87.61053467 146.68554688 C1.2837116 150.34259268 -84.77322066 158.2640993 -261.6640625 182.28125 C-262.37950855 182.39544407 -263.09495461 182.50963814 -263.83208084 182.62729263 C-276.49341576 184.65056214 -289.15235283 186.68855738 -301.77001953 188.97070312 C-303.05711319 189.20347961 -304.34420685 189.4362561 -305.67030334 189.67608643 C-308.1025199 190.11953738 -310.53392435 190.5674748 -312.96434021 191.02069092 C-314.04546585 191.21914612 -315.12659149 191.41760132 -316.24047852 191.62207031 C-317.18327164 191.79812805 -318.12606476 191.97418579 -319.09742737 192.15557861 C-321.680654 192.52469023 -324.12121284 192.59988119 -326.7265625 192.53125 C-323.32039962 189.73310961 -319.84261743 187.21205489 -316.1484375 184.80859375 C-315.07843506 184.11072754 -314.00843262 183.41286133 -312.90600586 182.69384766 C-311.76290727 181.95207261 -310.61975844 181.21037499 -309.4765625 180.46875 C-308.29747589 179.70121113 -307.11852181 178.93346864 -305.93969727 178.16552734 C-302.53764844 175.95050126 -299.13244685 173.74037401 -295.7265625 171.53125 C-294.86724121 170.97356934 -294.00791992 170.41588867 -293.12255859 169.84130859 C-288.97568336 167.15127633 -284.82467891 164.46770913 -280.67138672 161.78759766 C-278.71043083 160.52082902 -276.75141521 159.25111307 -274.79296875 157.98046875 C-266.41663242 152.54788306 -258.0153213 147.15570578 -249.6015625 141.78125 C-239.37249618 135.24515006 -229.19181404 128.63804634 -219.03125 121.99609375 C-212.2760159 117.58032941 -205.49898446 113.19857417 -198.71972656 108.81982422 C-196.73901755 107.53930215 -194.75988846 106.25637498 -192.78125 104.97265625 C-184.40867708 99.54289821 -176.0113641 94.15317804 -167.6015625 88.78125 C-157.37249618 82.24515006 -147.19181404 75.63804634 -137.03125 68.99609375 C-130.2760159 64.58032941 -123.49898446 60.19857417 -116.71972656 55.81982422 C-114.73901755 54.53930215 -112.75988846 53.25637498 -110.78125 51.97265625 C-102.40867708 46.54289821 -94.0113641 41.15317804 -85.6015625 35.78125 C-74.47757707 28.67332067 -63.41395638 21.47607988 -52.36425781 14.25341797 C-48.28188205 11.58800899 -44.19325668 8.93232685 -40.1015625 6.28125 C-39.4209375 5.83934326 -38.7403125 5.39743652 -38.0390625 4.94213867 C-36.80430974 4.14285675 -35.56469973 3.35100553 -34.31933594 2.56835938 C-32.57035499 1.46414331 -32.57035499 1.46414331 -30.453125 -0.265625 C-21.76893854 -4.09761559 -9.29800041 -0.91017656 0 0 Z "
        fill="#B4C200" transform="translate(330.7265625,628.46875)" />
    <path
        d="M0 0 C4.34114522 -0.1149453 8.68251268 -0.1974875 13.02449703 -0.27333927 C14.94733795 -0.31563306 16.86991119 -0.37379439 18.79172039 -0.44965839 C32.76944597 -0.99760262 32.76944597 -0.99760262 37.7874651 2.21426868 C40.05156374 4.4528695 41.88959195 6.72248722 43.77040577 9.28314686 C44.96936905 10.42003814 46.19443221 11.53090779 47.45790577 12.59564686 C48.10759327 13.15381092 48.75728077 13.71197498 49.42665577 14.28705311 C50.58681202 15.27511951 50.58681202 15.27511951 51.77040577 16.28314686 C52.82287037 17.18765133 53.87491937 18.09263951 54.92665577 18.99799061 C57.93620865 21.58668924 60.95225792 24.16767964 63.97108936 26.7455492 C65.13122837 27.73694072 66.29047672 28.7293759 67.44862843 29.72308826 C73.9601937 35.30974869 80.55927232 40.7464278 87.32899952 46.017766 C91.85771336 49.54834233 96.32250464 53.15143318 100.77040577 56.78314686 C109.44407229 63.85622283 118.23279056 70.77236035 127.08290577 77.62299061 C135.13111765 83.85666497 143.12021337 90.1460596 151.00111866 96.59027576 C155.32373529 100.12121427 159.68483647 103.59672106 164.08290577 107.03314686 C170.05043441 111.69775812 175.92395134 116.46740069 181.77040577 121.28314686 C183.56198283 122.74159027 185.35365079 124.19992203 187.14540577 125.65814686 C193.41773579 130.79167086 199.60071908 136.02716306 205.77040577 141.28314686 C206.357896 141.78281971 206.94538624 142.28249256 207.55067921 142.79730701 C214.29767732 148.53900605 220.99027502 154.32500061 227.55165577 160.27924061 C229.5634897 162.09626668 231.5970101 163.88259078 233.64540577 165.65814686 C238.04671156 169.49382299 242.34018824 173.44514372 246.63368702 177.40033436 C248.66365902 179.26999578 250.70220324 181.12931202 252.75087452 182.97845936 C258.73463298 188.40099344 264.50789268 193.97414088 270.18495655 199.71698475 C273.64482321 203.20251497 277.20447526 206.49345613 280.94228077 209.68158436 C286.3500247 214.4191378 291.16355228 219.67124626 295.82899952 225.12689686 C298.99594037 228.644304 302.4204592 231.90003883 305.82899952 235.18158436 C307.77040577 237.28314686 307.77040577 237.28314686 307.77040577 239.28314686 C308.76040577 239.61314686 309.75040577 239.94314686 310.77040577 240.28314686 C312.13759327 241.63861561 312.13759327 241.63861561 313.64540577 243.47064686 C317.02603012 247.46723242 320.56013459 251.2843937 324.14540577 255.09564686 C328.78972543 260.05999195 333.2084232 265.13241631 337.46181202 270.43939686 C340.1700717 273.77545955 342.96347388 277.03012662 345.77040577 280.28314686 C350.86884797 286.20564424 355.86211099 292.20148867 360.77040577 298.28314686 C361.41864307 299.07978748 361.41864307 299.07978748 362.07997608 299.89252186 C370.95077255 310.79503704 379.39621508 321.99647455 387.77040577 333.28314686 C388.39302296 334.12023182 389.01564014 334.95731678 389.65712452 335.81976795 C396.87133515 345.5237887 403.97977576 355.27684814 410.77040577 365.28314686 C410.44040577 365.94314686 410.11040577 366.60314686 409.77040577 367.28314686 C408.89255421 366.55224842 408.89255421 366.55224842 407.99696827 365.80658436 C382.63255465 344.85999653 355.97526158 325.7444438 328.77040577 307.28314686 C328.12394093 306.84260975 327.47747608 306.40207264 326.81142139 305.94818592 C291.44382304 281.87491626 253.85495494 260.71256934 215.77040577 241.28314686 C214.65391651 240.71128651 213.53742725 240.13942616 212.38710499 239.5502367 C144.94221566 205.09197912 73.99074941 178.14148247 2.98524952 152.04877186 C-28.75456827 140.37574791 -60.51081589 128.46276904 -91.22959423 114.28314686 C-92.14241161 113.86516834 -93.055229 113.44718983 -93.99570751 113.0165453 C-142.04615278 90.93587868 -186.30283602 61.17716446 -206.22959423 10.28314686 C-206.91034121 7.9538825 -207.57908454 5.62103608 -208.22959423 3.28314686 C-170.45470992 2.31565119 -132.67460284 1.81126801 -94.89123762 1.32035601 C-88.98389108 1.24336069 -83.07658437 1.16370783 -77.1692915 1.08270741 C-74.65056528 1.04827022 -72.13183868 1.01386185 -69.61311173 0.9794786 C-67.94483585 0.95670147 -66.27656049 0.93388605 -64.60828567 0.91103196 C-55.67248961 0.7890495 -46.73672149 0.67489035 -37.8005476 0.5842638 C-37.02407065 0.57632608 -36.24759369 0.56838836 -35.44758713 0.56021011 C-29.1836464 0.49628431 -29.1836464 0.49628431 -26.24798036 0.46732116 C-17.49602396 0.37971173 -8.74942999 0.23972744 0 0 Z "
        fill="#805632" transform="translate(444.22959423065186,252.71685314178467)" />
    <path
        d="M0 0 C-5.60527906 24.09727457 -19.08265694 44.30325078 -36 62 C-36.8146875 62.86753906 -37.629375 63.73507812 -38.46875 64.62890625 C-54.15231326 80.8980571 -74.36435982 93.06548071 -94 104 C-95.18964355 104.66370605 -95.18964355 104.66370605 -96.40332031 105.34082031 C-114.06500327 115.08875035 -132.50340418 123.11681687 -150.99517822 131.1307373 C-152.77034805 131.90042613 -154.54420824 132.6731339 -156.31787109 133.44628906 C-173.12231905 140.75450975 -190.1514161 147.52218694 -207.14743042 154.36856079 C-304.74202178 193.60841858 -304.74202178 193.60841858 -399.28833008 239.58374023 C-402.17664623 241.09225937 -405.09019584 242.54130341 -408.01171875 243.984375 C-413.72372623 246.82566418 -419.27716292 249.89319999 -424.8125 253.0625 C-426.82407084 254.20859298 -428.83579403 255.35441859 -430.84765625 256.5 C-431.8648877 257.08007812 -432.88211914 257.66015625 -433.93017578 258.2578125 C-436.92371263 259.95670537 -439.92650051 261.63773897 -442.93359375 263.3125 C-454.41961605 269.72062282 -465.64742892 276.40477748 -476.70263672 283.52929688 C-479.00088569 285.00056699 -481.31193714 286.44904203 -483.62890625 287.890625 C-513.52461661 306.51372118 -542.48571943 327.0072135 -570 349 C-571.26944267 350.01052795 -572.53897665 351.02094121 -573.80859375 352.03125 C-585.32631935 361.20950549 -596.70088474 370.55449178 -608 380 C-608 375.68330126 -605.6311283 372.98010718 -603.3125 369.5 C-602.57253784 368.37537354 -602.57253784 368.37537354 -601.81762695 367.22802734 C-600.22141508 364.81209858 -598.61264304 362.40498768 -597 360 C-596.22221191 358.83645996 -596.22221191 358.83645996 -595.42871094 357.64941406 C-580.95800602 336.06552962 -565.38201838 315.17166562 -549 295 C-548.00375923 293.76574365 -547.00767934 292.53135745 -546.01171875 291.296875 C-540.37659027 284.32436958 -534.69620461 277.3981925 -528.87695312 270.57836914 C-526.08763607 267.30538775 -523.37312912 263.98327287 -520.6875 260.625 C-516.402493 255.35173913 -511.80695987 250.40618061 -507.13549805 245.47705078 C-504.26271815 242.44350705 -501.44120481 239.38358463 -498.70581055 236.22509766 C-487.39575749 223.26653855 -475.24486649 211.0834891 -463.07250977 198.94213867 C-460.53739324 196.41244696 -458.00775363 193.87736467 -455.47851562 191.34179688 C-453.84146683 189.70540798 -452.20410834 188.06932883 -450.56640625 186.43359375 C-449.82354874 185.68871201 -449.08069122 184.94383026 -448.31532288 184.17637634 C-444.26782444 180.14680278 -440.13573022 176.28432241 -435.79063416 172.57655334 C-433.94705382 170.95338385 -432.21931403 169.25356467 -430.5 167.5 C-427.55399785 164.50765625 -424.47016993 161.74675828 -421.2890625 159.0078125 C-419.06444196 157.05652417 -416.88863971 155.05846735 -414.71948242 153.04589844 C-409.55757075 148.25827678 -404.26916442 143.72806332 -398.78125 139.3125 C-395.75979145 136.80027604 -392.87577314 134.17580369 -390 131.5 C-385.47014016 127.28971594 -380.79707379 123.32361786 -375.98046875 119.4453125 C-372.4270946 116.52996228 -368.96276267 113.52188157 -365.5 110.5 C-360.34444306 106.00470029 -355.12488152 101.61375993 -349.80859375 97.30859375 C-346.49701407 94.58655815 -343.2469 91.79856861 -340 89 C-334.98689941 84.68060414 -329.9146229 80.44902564 -324.77734375 76.27734375 C-321.09524075 73.25812286 -317.46937107 70.17498055 -313.84228516 67.09008789 C-310.36737521 64.14028692 -306.85537977 61.24328348 -303.3125 58.375 C-298.91342167 54.79716785 -294.70449622 51.0544148 -290.515625 47.234375 C-287.98669705 44.98818434 -285.38950086 42.86468782 -282.75 40.75 C-276.98684535 36.09042816 -271.61324485 31.06630421 -266.21484375 25.99609375 C-263.22166411 23.18950193 -260.16258302 20.48615009 -256.98046875 17.89453125 C-254.81417839 15.93726212 -254.81417839 15.93726212 -252.80078125 12.94921875 C-249.57127353 8.64951729 -246.07654398 4.69714705 -240.6487751 3.46721077 C-237.7575502 3.23436968 -234.91080764 3.18899782 -232.01000977 3.19555664 C-230.85518632 3.1753222 -229.70036287 3.15508776 -228.51054478 3.13424015 C-225.84894088 3.09084096 -223.18911509 3.05804806 -220.52739334 3.03966141 C-215.57974879 3.00250062 -210.63358302 2.90993211 -205.68673706 2.81613159 C-194.45634734 2.6090645 -183.2254873 2.44861281 -171.9942863 2.29281878 C-166.32424951 2.21354373 -160.65426237 2.13085539 -154.98426819 2.04859924 C-145.4894587 1.91132424 -135.99461984 1.77627269 -126.49975586 1.64282227 C-114.33299067 1.47181085 -102.16627823 1.29730669 -89.99957943 1.12164211 C-79.48598157 0.96984651 -68.97236507 0.81935725 -58.45874333 0.66922498 C-56.21322167 0.63714337 -53.9677006 0.6050203 -51.72218013 0.57285571 C-45.33341621 0.4813542 -38.94464318 0.39055317 -32.55585289 0.30091095 C-30.62657075 0.27374034 -28.69729192 0.24633372 -26.76801682 0.21866798 C-8.84442124 -0.03801261 -8.84442124 -0.03801261 0 0 Z "
        fill="#805632" transform="translate(1760,241)" />
</svg>